<svg xmlns="http://www.w3.org/2000/svg" xmlns:xlink="http://www.w3.org/1999/xlink" viewBox="0 0 244.06 244.14"><defs><style>.cls-1{fill:#d0cfcd;}.cls-2{fill:url(#linear-gradient);}.cls-3{fill:url(#linear-gradient-2);}</style><linearGradient id="linear-gradient" x1="46.36" y1="-162.99" x2="416.85" y2="-422.41" gradientTransform="translate(-144.02 244.84) rotate(31.64)" gradientUnits="userSpaceOnUse"><stop offset="0" stop-color="#d0d600"/><stop offset="1" stop-color="#87c82c"/></linearGradient><linearGradient id="linear-gradient-2" x1="179.69" y1="70.99" x2="57.6" y2="173.43" gradientUnits="userSpaceOnUse"><stop offset="0" stop-color="#87c71a"/><stop offset="1" stop-color="#d0d600"/></linearGradient></defs><title>logo_circel_puntovisual</title><g id="Layer_2" data-name="Layer 2"><g id="Capa_1" data-name="Capa 1"><path class="cls-1" d="M162.63,121.7a41.31,41.31,0,1,1-41.31-41.31,41.32,41.32,0,0,1,41.31,41.31"/><path class="cls-2" d="M56.73,225.73c-1.88-1.16-3.75-2.38-5.58-3.66C4.72,189.77-13,125.42,10,72.4c22.55-52,82.33-81.93,139.05-69.66a12.26,12.26,0,1,1-5.19,24c-45.5-9.84-93.37,14-111.35,55.45-18.44,42.52-4.43,94,32.61,119.78,35.89,25,85.78,23.48,118.5-3.62,35.25-29.18,46.25-81.26,25.58-121.13A12.27,12.27,0,1,1,231,65.9c25.86,49.89,12.22,114.94-31.72,151.32C159.94,249.81,101,253,56.73,225.73Z"/><path class="cls-3" d="M120.66,202.21a83.55,83.55,0,0,1-53.74-19.4C38.17,158.56,30.45,114.86,49,81.16c18.15-33,59.59-49.15,96.4-37.52a6.14,6.14,0,0,1-3.7,11.7c-31.34-9.91-66.56,3.73-81.94,31.72C44,115.74,50.46,152.88,74.83,173.44c23.62,19.93,58.77,22.12,83.58,5.2,26.69-18.2,37.83-54.11,25.91-83.51a6.13,6.13,0,0,1,11.37-4.61c14,34.63,1,76.87-30.37,98.25a79.17,79.17,0,0,1-44.66,13.44Z"/></g></g></svg>